# xmcd
# Copyright (C) 1995-1998 Ti Kan
#
# Track frame offsets:
#       150
#       15711
#       29656
#       46349
#       60928
#       79655
#       95874
#       111109
#       125882
#       140221
#       153531
#       168242
#       183498
#       197198
#
# Disc length: 2844 seconds
#
# Revision: 0
# Processed by: cddbd v1.5.2PL0 Copyright (c) Steve Scherf et al.
# Submitted via: CD-Transfer v1.0
#
DISCID=c90b1a0e
DTITLE=Barbara Zanetti - Es Geht Um Mehr
DYEAR=06
DGENRE=
TTITLE0=Dafür
TTITLE1=Die Zeit
TTITLE2=Es Geht Um Mehr
TTITLE3=Durchschaut
TTITLE4=Nie Zu Spät
TTITLE5=Lady Of Mystery
TTITLE6=Il Giorno
TTITLE7=Qualche Volta
TTITLE8=Come And Try
TTITLE9=I Feel The Earth Move
TTITLE10=How Does It Feels
TTITLE11=Take Me Away
TTITLE12=Dennoch-Leben
TTITLE13=Das Geheimnis
EXTD=
EXTT0=
EXTT1=
EXTT2=
EXTT3=
EXTT4=
EXTT5=
EXTT6=
EXTT7=
EXTT8=
EXTT9=
EXTT10=
EXTT11=
EXTT12=
EXTT13=
PLAYORDER=
